<svg width="512" height="512" viewBox="0 0 512 512" fill="none" xmlns="http://www.w3.org/2000/svg">
<path d="M354.582 177.21C327.593 182.915 305.687 202.397 296.571 227.954C291.94 231.19 287.228 234.346 282.432 237.416C273.696 243.007 264.959 248.157 256.224 252.867V268.2H292V298.152H256.224V317.198C252.767 322.373 250.75 328.591 250.75 335.281C250.75 347.813 252.668 359.896 256.224 371.253V388.008C256.224 397.16 254.838 404.232 252.064 409.224C249.291 414.216 244.16 418.099 236.672 420.872C229.461 423.091 220.032 424.478 208.384 425.032C197.013 425.587 182.453 425.864 164.704 425.864C164.149 422.814 163.04 419.347 161.376 415.464C159.989 411.859 158.325 408.115 156.384 404.232C154.72 400.627 153.056 397.437 151.392 394.664C160.821 394.941 169.696 395.08 178.016 395.08C186.613 395.357 194.102 395.496 200.48 395.496H213.792C217.397 395.219 219.894 394.387 221.28 393C222.667 391.891 223.36 389.949 223.36 387.176V298.152H60.7041V268.2H223.36V241.992C235.285 236.168 247.211 229.235 259.136 221.192C271.338 213.15 282.709 204.691 293.248 195.816C294.212 194.979 295.16 194.146 296.094 193.32H128.928V163.784H327.776L334.848 162.12L354.582 177.21ZM238.752 40.6484C244.853 48.1364 250.538 56.7339 255.808 66.4404C260.217 73.9358 263.66 80.7308 266.142 86.8242H414.72V172.936H382.688V116.776H96.0645V172.936H65.2803V86.8242H229.476C228.031 83.7649 226.41 80.5746 224.608 77.2559C219.616 67.2719 214.069 58.2585 207.968 50.2158L238.752 40.6484Z" fill="white"/>
<path d="M371 199.5C340.624 199.5 316 224.124 316 254.5V337C316 367.376 340.624 392 371 392C401.376 392 426 367.376 426 337V254.5C426 224.124 401.376 199.5 371 199.5ZM377.875 431.289C427.824 427.764 467.25 386.127 467.25 335.281C467.25 330.535 463.402 326.687 458.656 326.687C453.91 326.687 450.062 330.535 450.062 335.281C450.062 378.946 414.665 414.344 371 414.344C327.335 414.344 291.937 378.946 291.937 335.281C291.937 330.535 288.09 326.687 283.344 326.687C278.598 326.687 274.75 330.535 274.75 335.281C274.75 384.955 312.379 425.84 360.687 430.985V465.906C360.687 470.652 364.535 474.5 369.281 474.5C374.027 474.5 377.875 470.652 377.875 465.906V431.289Z" fill="white"/>
</svg>
